# xmcd
#
# Track frame offsets:
#	150
#	19263
#	33185
#	47299
#	62614
#	81307
#	99731
#	114759
#	129691
#	146956
#	159990
#
# Disc length: 2359 seconds
#
# Revision: 1
# Processed by: cddbd v1.5.2PL0 Copyright (c) Steve Scherf et al.
# Submitted via: audiograbber 1.83.01
#
DISCID=8a09350b
DTITLE=Paul Batto jr. - Lonesome Road
DYEAR=2013
DGENRE=Blues
TTITLE0=morning bird
TTITLE1=hey, hey, here comes a new day
TTITLE2=where have all the true souls gone
TTITLE3=JJ
TTITLE4=slow train to nowhere
TTITLE5=storm's comin'
TTITLE6=born and raised by the railroad track
TTITLE7=garden of love
TTITLE8=penny wise - pound foolish
TTITLE9=i'm a gypsy
TTITLE10=lonesome road
EXTD=
EXTT0=
EXTT1=
EXTT2=
EXTT3=
EXTT4=
EXTT5=
EXTT6=
EXTT7=
EXTT8=
EXTT9=
EXTT10=
PLAYORDER=
